<mxfile host="65bd71144e">
    <diagram name="Page-1" id="c9db0220-8083-56f3-ca83-edcdcd058819">
        <mxGraphModel dx="2160" dy="1630" grid="1" gridSize="10" guides="1" tooltips="1" connect="1" arrows="1" fold="1" page="1" pageScale="1.5" pageWidth="1169" pageHeight="827" background="#ffffff" math="0" shadow="0">
            <root>
                <mxCell id="0" style=";html=1;"/>
                <mxCell id="1" style=";html=1;" parent="0"/>
                <mxCell id="3d76a8aef4d5c911-1" value="" style="html=1;shadow=0;dashed=0;shape=mxgraph.bootstrap.rect;fillColor=#222222;strokeColor=none;whiteSpace=wrap;rounded=0;fontSize=12;fontColor=#000000;align=center;" parent="1" vertex="1">
                    <mxGeometry x="80" y="70" width="1600" height="90" as="geometry"/>
                </mxCell>
                <mxCell id="3d76a8aef4d5c911-7" value="Zoeken" style="html=1;shadow=0;dashed=0;fillColor=none;strokeColor=none;shape=mxgraph.bootstrap.rect;fontColor=#999999;whiteSpace=wrap;fontSize=24;" parent="3d76a8aef4d5c911-1" vertex="1">
                    <mxGeometry x="480.0139130434782" width="160" height="90" as="geometry"/>
                </mxCell>
                <mxCell id="3d76a8aef4d5c911-8" value="Logout" style="html=1;shadow=0;dashed=0;fillColor=none;strokeColor=none;shape=mxgraph.bootstrap.rect;fontColor=#999999;whiteSpace=wrap;fontSize=24;" parent="3d76a8aef4d5c911-1" vertex="1">
                    <mxGeometry x="1460" width="140" height="90" as="geometry"/>
                </mxCell>
                <mxCell id="H9CyvaDkC_5dpCcxhKHN-1" value="Contact" style="html=1;shadow=0;dashed=0;fillColor=none;strokeColor=none;shape=mxgraph.bootstrap.rect;fontColor=#999999;whiteSpace=wrap;fontSize=24;" parent="3d76a8aef4d5c911-1" vertex="1">
                    <mxGeometry x="340.0069565217391" width="140" height="90" as="geometry"/>
                </mxCell>
                <mxCell id="H9CyvaDkC_5dpCcxhKHN-4" value="About" style="html=1;shadow=0;dashed=0;fillColor=none;strokeColor=none;shape=mxgraph.bootstrap.rect;fontColor=#999999;whiteSpace=wrap;fontSize=24;" parent="3d76a8aef4d5c911-1" vertex="1">
                    <mxGeometry x="179.99304347826086" width="140" height="90" as="geometry"/>
                </mxCell>
                <mxCell id="2" value="Home" style="html=1;shadow=0;dashed=0;fillColor=none;strokeColor=none;shape=mxgraph.bootstrap.rect;fontColor=#999999;whiteSpace=wrap;fontSize=24;" parent="3d76a8aef4d5c911-1" vertex="1">
                    <mxGeometry x="20.00304347826085" width="140" height="90" as="geometry"/>
                </mxCell>
                <mxCell id="3d76a8aef4d5c911-17" value="WF11.1" style="html=1;shadow=0;dashed=0;shape=mxgraph.bootstrap.rect;strokeColor=none;fillColor=none;fontColor=#000000;align=left;spacingLeft=5;whiteSpace=wrap;rounded=0;fontStyle=1;fontSize=30;" parent="1" vertex="1">
                    <mxGeometry y="10" width="200" height="20" as="geometry"/>
                </mxCell>
                <mxCell id="H9CyvaDkC_5dpCcxhKHN-5" value="" style="html=1;shadow=0;dashed=0;shape=mxgraph.bootstrap.rect;fillColor=#222222;strokeColor=none;whiteSpace=wrap;rounded=0;fontSize=12;fontColor=#000000;align=center;" parent="1" vertex="1">
                    <mxGeometry x="80" y="1110" width="1600" height="90" as="geometry"/>
                </mxCell>
                <mxCell id="H9CyvaDkC_5dpCcxhKHN-9" value="Footer tekst" style="html=1;shadow=0;dashed=0;fillColor=none;strokeColor=none;shape=mxgraph.bootstrap.rect;fontColor=#999999;whiteSpace=wrap;fontSize=24;" parent="H9CyvaDkC_5dpCcxhKHN-5" vertex="1">
                    <mxGeometry x="50" width="340" height="90" as="geometry"/>
                </mxCell>
                <mxCell id="3" value="&lt;font style=&quot;font-size: 50px&quot;&gt;Afbeelding &lt;br&gt;(optioneel)&lt;br&gt;jpg/png&lt;br&gt;&lt;/font&gt;" style="html=1;shadow=0;dashed=0;shape=mxgraph.bootstrap.rrect;rSize=5;fontSize=12;strokeColor=#dddddd;align=center;spacing=10;verticalAlign=middle;whiteSpace=wrap;rounded=0;" parent="1" vertex="1">
                    <mxGeometry x="80" y="240" width="520" height="520" as="geometry"/>
                </mxCell>
                <mxCell id="4" value="&lt;font style=&quot;font-size: 50px&quot;&gt;Titel&lt;br&gt;&lt;/font&gt;" style="html=1;shadow=0;dashed=0;shape=mxgraph.bootstrap.rrect;rSize=5;fontSize=12;strokeColor=#dddddd;align=center;spacing=10;verticalAlign=middle;whiteSpace=wrap;rounded=0;" parent="1" vertex="1">
                    <mxGeometry x="640" y="240" width="1040" height="120" as="geometry"/>
                </mxCell>
                <mxCell id="5" value="&lt;font style=&quot;font-size: 29px&quot;&gt;Auteur&lt;/font&gt;" style="html=1;shadow=0;dashed=0;shape=mxgraph.bootstrap.rrect;rSize=5;fontSize=12;strokeColor=#dddddd;align=center;spacing=10;verticalAlign=middle;whiteSpace=wrap;rounded=0;" parent="1" vertex="1">
                    <mxGeometry x="640" y="360" width="520" height="40" as="geometry"/>
                </mxCell>
                <mxCell id="7" value="&lt;font style=&quot;font-size: 50px&quot;&gt;Uitleg&lt;br&gt;&lt;/font&gt;" style="html=1;shadow=0;dashed=0;shape=mxgraph.bootstrap.rrect;rSize=5;fontSize=12;strokeColor=#dddddd;align=center;spacing=10;verticalAlign=middle;whiteSpace=wrap;rounded=0;" parent="1" vertex="1">
                    <mxGeometry x="640" y="560" width="1040" height="200" as="geometry"/>
                </mxCell>
                <mxCell id="8" value="&lt;font style=&quot;font-size: 22px&quot;&gt;Waardering&lt;br style=&quot;font-size: 22px&quot;&gt;&lt;/font&gt;" style="html=1;shadow=0;dashed=0;shape=mxgraph.bootstrap.rrect;rSize=5;fontSize=22;strokeColor=#dddddd;align=center;spacing=10;verticalAlign=middle;whiteSpace=wrap;rounded=0;" parent="1" vertex="1">
                    <mxGeometry x="1160" y="440" width="520" height="40" as="geometry"/>
                </mxCell>
                <mxCell id="9" value="&lt;font style=&quot;font-size: 29px;&quot;&gt;&lt;font style=&quot;font-size: 29px;&quot;&gt;Datum laatst gewijzigd&lt;/font&gt;&lt;br style=&quot;font-size: 29px;&quot;&gt;&lt;/font&gt;" style="html=1;shadow=0;dashed=0;shape=mxgraph.bootstrap.rrect;rSize=5;fontSize=29;strokeColor=#dddddd;align=center;spacing=10;verticalAlign=middle;whiteSpace=wrap;rounded=0;" parent="1" vertex="1">
                    <mxGeometry x="1160" y="360" width="520" height="40" as="geometry"/>
                </mxCell>
                <mxCell id="10" value="&lt;font style=&quot;font-size: 29px&quot;&gt;&lt;font style=&quot;font-size: 29px&quot;&gt;Tags (opsomming)&lt;/font&gt;&lt;br style=&quot;font-size: 29px&quot;&gt;&lt;/font&gt;" style="html=1;shadow=0;dashed=0;shape=mxgraph.bootstrap.rrect;rSize=5;fontSize=29;strokeColor=#dddddd;align=center;spacing=10;verticalAlign=middle;whiteSpace=wrap;rounded=0;" parent="1" vertex="1">
                    <mxGeometry x="640" y="440" width="520" height="80" as="geometry"/>
                </mxCell>
                <mxCell id="11" value="&lt;font style=&quot;font-size: 50px&quot;&gt;Codeblok &lt;br&gt;(optioneel)&lt;br&gt;&lt;/font&gt;" style="html=1;shadow=0;dashed=0;shape=mxgraph.bootstrap.rrect;rSize=5;fontSize=12;strokeColor=#dddddd;align=center;spacing=10;verticalAlign=middle;whiteSpace=wrap;rounded=0;" parent="1" vertex="1">
                    <mxGeometry x="80" y="800" width="1600" height="240" as="geometry"/>
                </mxCell>
                <mxCell id="12" value="&lt;font style=&quot;font-size: 22px&quot;&gt;Waardeer van 1 tot 5&lt;br style=&quot;font-size: 22px&quot;&gt;&lt;/font&gt;" style="html=1;shadow=0;dashed=0;shape=mxgraph.bootstrap.rrect;rSize=5;fontSize=22;strokeColor=#dddddd;align=center;spacing=10;verticalAlign=middle;whiteSpace=wrap;rounded=0;" parent="1" vertex="1">
                    <mxGeometry x="1160" y="480" width="520" height="40" as="geometry"/>
                </mxCell>
                <mxCell id="13" value="&lt;font style=&quot;font-size: 22px&quot;&gt;Edit&lt;br style=&quot;font-size: 22px&quot;&gt;&lt;/font&gt;" style="html=1;shadow=0;dashed=0;shape=mxgraph.bootstrap.rrect;rSize=5;fontSize=22;strokeColor=#dddddd;align=center;spacing=10;verticalAlign=middle;whiteSpace=wrap;rounded=0;" parent="1" vertex="1">
                    <mxGeometry x="1430" y="200" width="250" height="40" as="geometry"/>
                </mxCell>
                <mxCell id="14" value="&lt;font style=&quot;font-size: 22px&quot;&gt;Delete&lt;br style=&quot;font-size: 22px&quot;&gt;&lt;/font&gt;" style="html=1;shadow=0;dashed=0;shape=mxgraph.bootstrap.rrect;rSize=5;fontSize=22;strokeColor=#dddddd;align=center;spacing=10;verticalAlign=middle;whiteSpace=wrap;rounded=0;" parent="1" vertex="1">
                    <mxGeometry x="1160" y="200" width="270" height="40" as="geometry"/>
                </mxCell>
            </root>
        </mxGraphModel>
    </diagram>
</mxfile>